<?xml version="1.0" encoding="UTF-8" standalone="no"?>
<svg
   width="410.89972"
   height="375.54907"
   viewBox="0 0 410.89972 375.54907"
   version="1.1"
   xml:space="preserve"
   style="clip-rule:evenodd;fill-rule:evenodd;stroke-linecap:round;stroke-linejoin:round;stroke-miterlimit:1.5"
   id="svg46"
   xmlns="http://www.w3.org/2000/svg"
   xmlns:svg="http://www.w3.org/2000/svg"><defs
     id="defs46" /><g
     id="g38"
     transform="translate(-57.282459,-24.865466)"><g
       id="g37"><g
         id="g6"><path
           d="M 105.899,295.228 207.409,120.491"
           style="fill:none;stroke:#7fb8e3;stroke-width:15.4px"
           id="path1" /><path
           d="m 70.086,213.384 82.674,1.178"
           style="fill:none;stroke:#7fb8e3;stroke-width:15.4px"
           id="path2" /><g
           id="g3"><path
             d="m 59,207.014 c 3.535,-6.085 11.373,-8.171 17.491,-4.655 6.119,3.516 8.216,11.311 4.681,17.396 -3.535,6.085 -11.373,8.171 -17.491,4.655 C 57.562,220.894 55.465,213.099 59,207.014 Z"
             style="fill:#5279ba"
             id="path3" /></g><g
           id="g4"><path
             d="m 94.813,288.858 c 3.535,-6.085 11.373,-8.171 17.491,-4.655 6.119,3.516 8.216,11.311 4.681,17.396 -3.535,6.085 -11.373,8.171 -17.491,4.655 -6.119,-3.516 -8.216,-11.311 -4.681,-17.396 z"
             style="fill:#5279ba"
             id="path4" /></g><g
           id="g5"><path
             d="m 141.674,208.192 c 3.535,-6.085 11.373,-8.171 17.491,-4.655 6.119,3.516 8.216,11.311 4.681,17.396 -3.535,6.085 -11.373,8.171 -17.491,4.655 -6.119,-3.516 -8.216,-11.311 -4.681,-17.396 z"
             style="fill:#5279ba"
             id="path5" /></g></g><g
         id="g11"><path
           d="M 106.46,295.228 207.97,120.491"
           style="fill:none;stroke:#7fb8e3;stroke-width:15.4px"
           id="path6" /><path
           d="m 70.647,213.384 82.674,1.178"
           style="fill:none;stroke:#7fb8e3;stroke-width:15.4px"
           id="path7" /><g
           id="g8"><path
             d="m 59.561,207.014 c 3.535,-6.085 11.373,-8.171 17.491,-4.655 6.119,3.516 8.216,11.311 4.681,17.396 -3.535,6.085 -11.373,8.171 -17.491,4.655 -6.119,-3.516 -8.216,-11.311 -4.681,-17.396 z"
             style="fill:#5279ba"
             id="path8" /></g><g
           id="g9"><path
             d="m 95.374,288.858 c 3.535,-6.085 11.373,-8.171 17.491,-4.655 6.119,3.516 8.216,11.311 4.681,17.396 -3.535,6.085 -11.373,8.171 -17.491,4.655 -6.119,-3.516 -8.216,-11.311 -4.681,-17.396 z"
             style="fill:#5279ba"
             id="path9" /></g><g
           id="g10"><path
             d="m 142.235,208.192 c 3.535,-6.085 11.373,-8.171 17.491,-4.655 6.119,3.516 8.216,11.311 4.681,17.396 -3.535,6.085 -11.373,8.171 -17.491,4.655 -6.119,-3.516 -8.216,-11.311 -4.681,-17.396 z"
             style="fill:#5279ba"
             id="path10" /></g></g><g
         id="g15"><path
           d="M 114.856,119.378 H 317.764"
           style="fill:none;stroke:#7fb8e3;stroke-width:15.4px"
           id="path11" /><path
           d="m 168.193,47.592 40.334,71.785"
           style="fill:none;stroke:#7fb8e3;stroke-width:15.4px"
           id="path12" /><g
           id="g12"><ellipse
             cx="168.19299"
             cy="47.591999"
             rx="12.804"
             ry="12.734"
             style="fill:#5279ba"
             id="ellipse12" /></g><g
           id="g13"><ellipse
             cx="114.856"
             cy="119.378"
             rx="12.804"
             ry="12.734"
             style="fill:#5279ba"
             id="ellipse13" /></g><g
           id="g14"><ellipse
             cx="208.528"
             cy="119.378"
             rx="12.804"
             ry="12.734"
             style="fill:#5279ba"
             id="ellipse14" /></g></g><g
         id="g20"><path
           d="M 270.616,37.599 372.14,212.328"
           style="fill:none;stroke:#7fb8e3;stroke-width:15.4px"
           id="path15" /><path
           d="m 359.796,47.612 -42.312,70.65"
           style="fill:none;stroke:#7fb8e3;stroke-width:15.4px"
           id="path16" /><g
           id="g17"><path
             d="m 370.882,41.24 c 3.536,6.085 1.439,13.88 -4.679,17.397 -6.118,3.516 -13.956,1.431 -17.492,-4.654 -3.536,-6.085 -1.439,-13.88 4.679,-17.397 6.118,-3.516 13.956,-1.431 17.492,4.654 z"
             style="fill:#5279ba"
             id="path17" /></g><g
           id="g18"><path
             d="m 281.702,31.228 c 3.536,6.085 1.439,13.88 -4.679,17.397 -6.118,3.516 -13.956,1.431 -17.492,-4.654 -3.536,-6.085 -1.439,-13.88 4.679,-17.397 6.118,-3.516 13.956,-1.431 17.492,4.654 z"
             style="fill:#5279ba"
             id="path18" /></g><g
           id="g19"><path
             d="m 328.57,111.891 c 3.536,6.085 1.439,13.88 -4.679,17.397 -6.118,3.516 -13.956,1.431 -17.492,-4.654 -3.536,-6.085 -1.439,-13.88 4.679,-17.397 6.118,-3.516 13.956,-1.431 17.492,4.654 z"
             style="fill:#5279ba"
             id="path19" /></g></g><g
         id="g25"><path
           d="M 419.494,130.159 318.136,304.983"
           style="fill:none;stroke:#7fb8e3;stroke-width:15.4px"
           id="path20" /><path
           d="m 455.378,211.973 -82.675,-1.107"
           style="fill:none;stroke:#7fb8e3;stroke-width:15.4px"
           id="path21" /><g
           id="g22"><path
             d="m 466.47,218.334 c -3.53,6.088 -11.366,8.181 -17.487,4.67 -6.122,-3.511 -8.226,-11.304 -4.696,-17.392 3.53,-6.088 11.366,-8.181 17.487,-4.67 6.122,3.511 8.226,11.304 4.696,17.392 z"
             style="fill:#5279ba"
             id="path22" /></g><g
           id="g23"><path
             d="m 430.586,136.52 c -3.53,6.088 -11.366,8.181 -17.487,4.67 -6.122,-3.511 -8.226,-11.304 -4.696,-17.392 3.53,-6.088 11.366,-8.181 17.487,-4.67 6.122,3.511 8.226,11.304 4.696,17.392 z"
             style="fill:#5279ba"
             id="path23" /></g><g
           id="g24"><path
             d="m 383.795,217.227 c -3.53,6.088 -11.366,8.181 -17.487,4.67 -6.122,-3.511 -8.226,-11.304 -4.696,-17.392 3.53,-6.088 11.366,-8.181 17.487,-4.67 6.122,3.511 8.226,11.304 4.696,17.392 z"
             style="fill:#5279ba"
             id="path24" /></g></g><g
         id="g30"><path
           d="m 413.225,306.416 -202.908,0.127"
           style="fill:none;stroke:#7fb8e3;stroke-width:15.4px"
           id="path25" /><path
           d="m 359.934,378.235 -40.38,-71.76"
           style="fill:none;stroke:#7fb8e3;stroke-width:15.4px"
           id="path26" /><g
           id="g27"><path
             d="m 359.942,390.969 c -7.066,0.004 -12.807,-5.698 -12.812,-12.726 -0.004,-7.028 5.729,-12.738 12.795,-12.742 7.066,-0.004 12.807,5.698 12.812,12.726 0.004,7.028 -5.729,12.738 -12.795,12.742 z"
             style="fill:#5279ba"
             id="path27" /></g><g
           id="g28"><path
             d="m 413.233,319.15 c -7.066,0.004 -12.807,-5.698 -12.812,-12.726 -0.004,-7.028 5.729,-12.738 12.795,-12.742 7.066,-0.004 12.807,5.698 12.812,12.726 0.004,7.028 -5.729,12.738 -12.795,12.742 z"
             style="fill:#5279ba"
             id="path28" /></g><g
           id="g29"><path
             d="m 319.562,319.209 c -7.066,0.004 -12.807,-5.698 -12.812,-12.726 -0.004,-7.028 5.729,-12.738 12.795,-12.742 7.066,-0.004 12.807,5.698 12.812,12.726 0.004,7.028 -5.729,12.738 -12.795,12.742 z"
             style="fill:#5279ba"
             id="path29" /></g></g><g
         id="g35"><path
           d="M 254.748,387.681 153.254,212.935"
           style="fill:none;stroke:#7fb8e3;stroke-width:15.4px"
           id="path30" /><path
           d="M 165.57,377.653 207.894,307.01"
           style="fill:none;stroke:#7fb8e3;stroke-width:15.4px"
           id="path31" /><g
           id="g32"><path
             d="m 154.483,384.022 c -3.535,-6.086 -1.436,-13.881 4.682,-17.396 6.119,-3.515 13.956,-1.429 17.491,4.657 3.535,6.086 1.436,13.881 -4.682,17.396 -6.119,3.515 -13.956,1.429 -17.491,-4.657 z"
             style="fill:#5279ba"
             id="path32" /></g><g
           id="g33"><path
             d="m 243.662,394.05 c -3.535,-6.086 -1.436,-13.881 4.682,-17.396 6.119,-3.515 13.956,-1.429 17.491,4.657 3.535,6.086 1.436,13.881 -4.682,17.396 -6.119,3.515 -13.956,1.429 -17.491,-4.657 z"
             style="fill:#5279ba"
             id="path33" /></g><g
           id="g34"><path
             d="m 196.807,313.379 c -3.535,-6.086 -1.436,-13.881 4.682,-17.396 6.119,-3.515 13.956,-1.429 17.491,4.657 3.535,6.086 1.436,13.881 -4.682,17.396 -6.119,3.515 -13.956,1.429 -17.491,-4.657 z"
             style="fill:#5279ba"
             id="path34" /></g></g><g
         id="g36"><path
           d="m 141.674,208.192 c 3.535,-6.085 11.373,-8.171 17.491,-4.655 6.119,3.516 8.216,11.311 4.681,17.396 -3.535,6.085 -11.373,8.171 -17.491,4.655 -6.119,-3.516 -8.216,-11.311 -4.681,-17.396 z"
           style="fill:#5279ba"
           id="path35" /></g></g></g></svg>
